<?xml version="1.0" standalone="no"?>
<!DOCTYPE svg PUBLIC "-//W3C//DTD SVG 20010904//EN"
 "http://www.w3.org/TR/2001/REC-SVG-20010904/DTD/svg10.dtd">
<svg version="1.0" xmlns="http://www.w3.org/2000/svg"
 width="1517.000000pt" height="1517.000000pt" viewBox="0 0 1517.000000 1517.000000"
 preserveAspectRatio="xMidYMid meet">
<metadata>
Created by potrace 1.11, written by Peter Selinger 2001-2013
</metadata>
<g transform="translate(0.000000,1517.000000) scale(0.100000,-0.100000)"
fill="#000000" stroke="none">
<path d="M2825 15163 c-452 -36 -789 -126 -1157 -310 -173 -86 -402 -232 -548
-349 -109 -87 -367 -345 -454 -454 -183 -230 -382 -577 -474 -830 -78 -214
-140 -466 -173 -705 -17 -121 -26 -9493 -9 -9714 54 -736 351 -1391 865 -1906
461 -463 1006 -743 1670 -857 l130 -23 4845 -3 c4374 -2 4859 -1 4985 13 820
93 1565 522 2063 1188 318 425 517 926 577 1452 14 126 15 611 13 4985 l-3
4845 -23 130 c-79 460 -224 828 -471 1203 -113 171 -227 309 -386 467 -510
509 -1159 806 -1889 865 -87 7 -1643 9 -4825 8 -2583 -1 -4714 -3 -4736 -5z
m3565 -4664 c0 -6 205 -1258 456 -2782 515 -3131 485 -2911 412 -3018 -20 -30
-56 -75 -80 -102 l-45 -47 -1756 0 c-967 0 -1757 3 -1757 7 0 4 127 238 281
520 l282 513 894 0 893 0 -5 23 c-2 12 -124 780 -270 1707 -147 927 -269 1692
-273 1702 -5 11 -394 -691 -1236 -2228 l-1229 -2244 -639 0 -639 0 68 128 c37
71 759 1412 1603 2980 l1535 2851 753 1 c543 0 752 -3 752 -11z m6017 -16
c667 -110 1013 -373 1138 -867 34 -134 45 -248 45 -461 0 -210 -26 -478 -60
-623 -75 -318 -223 -622 -430 -882 -81 -101 -273 -291 -385 -380 -235 -187
-521 -344 -810 -445 -44 -16 -82 -30 -84 -31 -1 -2 220 -500 493 -1107 272
-607 498 -1112 502 -1121 6 -15 -40 -16 -606 -14 l-612 3 -639 1484 c-351 816
-639 1486 -639 1490 0 4 39 33 86 64 104 67 130 73 355 81 548 19 997 170
1253 423 161 158 291 387 343 605 27 110 24 293 -4 383 -41 127 -149 246 -288
314 -126 62 -109 61 -1080 61 -697 0 -884 -3 -887 -12 -3 -7 -238 -1112 -524
-2455 l-519 -2443 -608 0 c-483 0 -608 3 -605 13 3 6 290 1348 639 2980 l634
2968 1580 -4 c1564 -3 1581 -3 1712 -24z"/>
</g>
</svg>
